<svg width="626" height="351" viewBox="0 0 626 351" fill="none" xmlns="http://www.w3.org/2000/svg">
<path d="M256.321 157.5H242.982V117.482C242.982 70.9058 205.076 33 158.5 33C111.924 33 74.0179 70.9058 74.0179 117.482V157.5H60.6786C45.9498 157.5 34 169.45 34 184.179V290.893C34 305.622 45.9498 317.571 60.6786 317.571H256.321C271.05 317.571 283 305.622 283 290.893V184.179C283 169.45 271.05 157.5 256.321 157.5ZM198.518 157.5H118.482V117.482C118.482 95.4167 136.435 77.4643 158.5 77.4643C180.565 77.4643 198.518 95.4167 198.518 117.482V157.5Z" fill="black"/>
<path d="M341.191 141.5H339.012C338.988 140.68 338.824 139.922 338.52 139.227C338.215 138.523 337.789 137.91 337.242 137.387C336.695 136.863 336.043 136.457 335.285 136.168C334.535 135.879 333.695 135.734 332.766 135.734C331.234 135.734 329.77 136.137 328.371 136.941C326.973 137.738 325.77 138.91 324.762 140.457C323.754 142.004 323.066 143.895 322.699 146.129C322.332 148.332 322.391 150.188 322.875 151.695C323.359 153.195 324.152 154.332 325.254 155.105C326.363 155.879 327.664 156.266 329.156 156.266C330.109 156.266 331.023 156.121 331.898 155.832C332.773 155.543 333.578 155.141 334.313 154.625C335.047 154.102 335.691 153.488 336.246 152.785C336.801 152.082 337.23 151.32 337.535 150.5H339.738C339.355 151.602 338.82 152.629 338.133 153.582C337.445 154.527 336.633 155.355 335.695 156.066C334.766 156.777 333.738 157.332 332.613 157.73C331.496 158.129 330.309 158.328 329.051 158.328C327.004 158.328 325.273 157.816 323.859 156.793C322.453 155.77 321.453 154.328 320.859 152.469C320.273 150.602 320.191 148.402 320.613 145.871C321.027 143.387 321.82 141.23 322.992 139.402C324.172 137.574 325.617 136.164 327.328 135.172C329.039 134.172 330.898 133.672 332.906 133.672C334.188 133.672 335.336 133.871 336.352 134.27C337.367 134.66 338.23 135.215 338.941 135.934C339.66 136.645 340.211 137.473 340.594 138.418C340.977 139.363 341.176 140.391 341.191 141.5ZM365.276 146.129C364.862 148.605 364.065 150.758 362.886 152.586C361.706 154.414 360.265 155.828 358.562 156.828C356.858 157.828 355.007 158.328 353.007 158.328C350.952 158.328 349.218 157.816 347.804 156.793C346.397 155.762 345.401 154.316 344.815 152.457C344.229 150.59 344.144 148.395 344.558 145.871C344.972 143.395 345.769 141.242 346.948 139.414C348.128 137.586 349.573 136.172 351.284 135.172C352.995 134.172 354.854 133.672 356.862 133.672C358.894 133.672 360.612 134.184 362.019 135.207C363.425 136.23 364.425 137.676 365.019 139.543C365.612 141.402 365.698 143.598 365.276 146.129ZM363.179 145.871C363.538 143.73 363.491 141.906 363.038 140.398C362.593 138.891 361.827 137.738 360.741 136.941C359.655 136.137 358.339 135.734 356.792 135.734C355.19 135.734 353.687 136.148 352.28 136.977C350.874 137.797 349.675 138.984 348.683 140.539C347.69 142.086 347.011 143.949 346.644 146.129C346.292 148.262 346.339 150.086 346.784 151.602C347.229 153.109 347.995 154.266 349.081 155.07C350.175 155.867 351.499 156.266 353.054 156.266C354.663 156.266 356.171 155.852 357.577 155.023C358.983 154.195 360.179 153.008 361.163 151.461C362.155 149.906 362.827 148.043 363.179 145.871ZM372.592 134H375.123L380.373 154.906H380.596L392.748 134H395.279L391.295 158H389.232L392.467 138.629H392.279L380.947 158H378.955L374.092 138.629H373.904L370.67 158H368.607L372.592 134ZM397.676 158L401.66 134H409.406C411.109 134 412.48 134.324 413.52 134.973C414.559 135.621 415.273 136.504 415.664 137.621C416.063 138.738 416.145 140 415.91 141.406C415.684 142.797 415.184 144.055 414.41 145.18C413.645 146.297 412.633 147.184 411.375 147.84C410.125 148.496 408.656 148.824 406.969 148.824H400.875L401.203 146.855H407.238C408.496 146.855 409.578 146.621 410.484 146.152C411.398 145.676 412.129 145.027 412.676 144.207C413.223 143.379 413.582 142.445 413.754 141.406C413.926 140.352 413.871 139.414 413.59 138.594C413.316 137.773 412.801 137.133 412.043 136.672C411.293 136.203 410.285 135.969 409.02 135.969H403.523L399.867 158H397.676ZM418.301 158L422.285 134H430.031C431.734 134 433.105 134.305 434.145 134.914C435.191 135.523 435.914 136.371 436.313 137.457C436.719 138.535 436.809 139.777 436.582 141.184C436.348 142.574 435.848 143.805 435.082 144.875C434.324 145.945 433.324 146.785 432.082 147.395C430.84 147.996 429.375 148.297 427.688 148.297H421.102L421.441 146.293H427.969C429.227 146.293 430.305 146.086 431.203 145.672C432.102 145.258 432.82 144.668 433.359 143.902C433.898 143.137 434.254 142.23 434.426 141.184C434.598 140.129 434.539 139.211 434.25 138.43C433.969 137.648 433.445 137.043 432.68 136.613C431.922 136.184 430.91 135.969 429.645 135.969H424.148L420.492 158H418.301ZM430.676 147.172L434.789 158H432.27L428.227 147.172H430.676ZM439.154 158H436.857L449.572 134H451.916L456.662 158H454.365L450.369 136.848H450.217L439.154 158ZM442.342 148.801H454.248L453.92 150.77H442.014L442.342 148.801ZM491.561 141.5H489.381C489.357 140.68 489.193 139.922 488.889 139.227C488.584 138.523 488.158 137.91 487.611 137.387C487.064 136.863 486.412 136.457 485.654 136.168C484.904 135.879 484.064 135.734 483.135 135.734C481.604 135.734 480.139 136.137 478.74 136.941C477.342 137.738 476.139 138.91 475.131 140.457C474.123 142.004 473.436 143.895 473.068 146.129C472.701 148.332 472.76 150.188 473.244 151.695C473.729 153.195 474.521 154.332 475.623 155.105C476.732 155.879 478.033 156.266 479.525 156.266C480.479 156.266 481.393 156.121 482.268 155.832C483.143 155.543 483.947 155.141 484.682 154.625C485.416 154.102 486.061 153.488 486.615 152.785C487.17 152.082 487.6 151.32 487.904 150.5H490.107C489.725 151.602 489.189 152.629 488.502 153.582C487.814 154.527 487.002 155.355 486.064 156.066C485.135 156.777 484.107 157.332 482.982 157.73C481.865 158.129 480.678 158.328 479.42 158.328C477.373 158.328 475.643 157.816 474.229 156.793C472.822 155.77 471.822 154.328 471.229 152.469C470.643 150.602 470.561 148.402 470.982 145.871C471.396 143.387 472.189 141.23 473.361 139.402C474.541 137.574 475.986 136.164 477.697 135.172C479.408 134.172 481.268 133.672 483.275 133.672C484.557 133.672 485.705 133.871 486.721 134.27C487.736 134.66 488.6 135.215 489.311 135.934C490.029 136.645 490.58 137.473 490.963 138.418C491.346 139.363 491.545 140.391 491.561 141.5ZM515.646 146.129C515.231 148.605 514.435 150.758 513.255 152.586C512.075 154.414 510.634 155.828 508.931 156.828C507.228 157.828 505.376 158.328 503.376 158.328C501.321 158.328 499.587 157.816 498.173 156.793C496.767 155.762 495.771 154.316 495.185 152.457C494.599 150.59 494.513 148.395 494.927 145.871C495.341 143.395 496.138 141.242 497.317 139.414C498.497 137.586 499.942 136.172 501.653 135.172C503.364 134.172 505.224 133.672 507.231 133.672C509.263 133.672 510.981 134.184 512.388 135.207C513.794 136.23 514.794 137.676 515.388 139.543C515.981 141.402 516.067 143.598 515.646 146.129ZM513.548 145.871C513.907 143.73 513.86 141.906 513.407 140.398C512.962 138.891 512.196 137.738 511.11 136.941C510.024 136.137 508.708 135.734 507.161 135.734C505.56 135.734 504.056 136.148 502.649 136.977C501.243 137.797 500.044 138.984 499.052 140.539C498.06 142.086 497.38 143.949 497.013 146.129C496.661 148.262 496.708 150.086 497.153 151.602C497.599 153.109 498.364 154.266 499.45 155.07C500.544 155.867 501.868 156.266 503.423 156.266C505.032 156.266 506.54 155.852 507.946 155.023C509.353 154.195 510.548 153.008 511.532 151.461C512.524 149.906 513.196 148.043 513.548 145.871ZM541.652 134L537.668 158H535.535L524.695 137.902H524.508L521.168 158H518.977L522.961 134H525.082L535.957 154.121H536.145L539.496 134H541.652ZM553.33 158L557.314 134H559.506L555.85 156.031H567.287L566.959 158H553.33ZM573.442 158H571.146L583.86 134H586.204L590.95 158H588.653L584.657 136.848H584.505L573.442 158ZM576.63 148.801H588.536L588.208 150.77H576.302L576.63 148.801ZM339 181.5C338.922 180.695 338.742 179.945 338.461 179.25C338.18 178.547 337.785 177.934 337.277 177.41C336.77 176.887 336.141 176.477 335.391 176.18C334.648 175.883 333.773 175.734 332.766 175.734C331.273 175.734 329.828 176.129 328.43 176.918C327.039 177.707 325.832 178.867 324.809 180.398C323.793 181.922 323.102 183.789 322.734 186C322.375 188.164 322.41 190.012 322.84 191.543C323.27 193.074 324.031 194.246 325.125 195.059C326.219 195.863 327.582 196.266 329.215 196.266C330.684 196.266 332.051 195.937 333.316 195.281C334.582 194.617 335.648 193.676 336.516 192.457C337.383 191.238 337.945 189.793 338.203 188.121L338.859 188.344H331.172L331.535 186.375H340.641L340.277 188.344C339.949 190.398 339.25 192.172 338.18 193.664C337.109 195.156 335.781 196.309 334.195 197.121C332.609 197.926 330.883 198.328 329.016 198.328C326.922 198.328 325.172 197.824 323.766 196.816C322.367 195.801 321.387 194.371 320.824 192.527C320.262 190.684 320.191 188.508 320.613 186C320.91 184.117 321.434 182.418 322.184 180.902C322.934 179.387 323.855 178.094 324.949 177.023C326.051 175.945 327.277 175.117 328.629 174.539C329.988 173.961 331.426 173.672 332.941 173.672C334.254 173.672 335.422 173.879 336.445 174.293C337.469 174.707 338.336 175.277 339.047 176.004C339.758 176.723 340.297 177.555 340.664 178.5C341.039 179.437 341.234 180.437 341.25 181.5H339ZM343.441 198H341.145L353.859 174H356.203L360.949 198H358.652L354.656 176.848H354.504L343.441 198ZM346.629 188.801H358.535L358.207 190.77H346.301L346.629 188.801ZM365.063 198L369.047 174H376.793C378.496 174 379.867 174.305 380.906 174.914C381.953 175.523 382.676 176.371 383.074 177.457C383.48 178.535 383.57 179.777 383.344 181.184C383.109 182.574 382.609 183.805 381.844 184.875C381.086 185.945 380.086 186.785 378.844 187.395C377.602 187.996 376.137 188.297 374.449 188.297H367.863L368.203 186.293H374.73C375.988 186.293 377.066 186.086 377.965 185.672C378.863 185.258 379.582 184.668 380.121 183.902C380.66 183.137 381.016 182.23 381.188 181.184C381.359 180.129 381.301 179.211 381.012 178.43C380.73 177.648 380.207 177.043 379.441 176.613C378.684 176.184 377.672 175.969 376.406 175.969H370.91L367.254 198H365.063ZM377.438 187.172L381.551 198H379.031L374.988 187.172H377.438ZM385.916 198H383.619L396.334 174H398.678L403.424 198H401.127L397.131 176.848H396.979L385.916 198ZM389.104 188.801H401.01L400.682 190.77H388.775L389.104 188.801ZM430.213 174L426.229 198H424.096L413.256 177.902H413.068L409.729 198H407.537L411.521 174H413.643L424.518 194.121H424.705L428.057 174H430.213ZM434.813 175.969L435.141 174H452.543L452.215 175.969H444.609L440.953 198H438.762L442.418 175.969H434.813ZM459.668 174L455.684 198H453.492L457.477 174H459.668ZM462.1 198H459.803L472.518 174H474.861L479.607 198H477.311L473.314 176.848H473.162L462.1 198ZM465.287 188.801H477.193L476.865 190.77H464.959L465.287 188.801ZM500.092 198H493.002L496.986 174H504.381C506.662 174 508.545 174.484 510.029 175.453C511.514 176.422 512.545 177.809 513.123 179.613C513.701 181.41 513.779 183.559 513.357 186.059C512.943 188.559 512.15 190.699 510.979 192.48C509.807 194.262 508.299 195.629 506.455 196.582C504.619 197.527 502.498 198 500.092 198ZM495.521 196.031H500.209C502.256 196.031 504.045 195.617 505.576 194.789C507.107 193.961 508.354 192.785 509.314 191.262C510.275 189.73 510.928 187.914 511.271 185.812C511.615 183.75 511.576 181.984 511.154 180.516C510.74 179.047 509.939 177.922 508.752 177.141C507.572 176.359 506.006 175.969 504.053 175.969H498.838L495.521 196.031ZM516.688 198L520.673 174H534.595L534.267 175.969H522.536L521.036 185.004H532.028L531.7 186.973H520.708L519.208 196.031H531.173L530.845 198H516.688ZM319.688 238L323.672 214H331.418C333.121 214 334.492 214.324 335.531 214.973C336.57 215.621 337.285 216.504 337.676 217.621C338.074 218.738 338.156 220 337.922 221.406C337.695 222.797 337.195 224.055 336.422 225.18C335.656 226.297 334.645 227.184 333.387 227.84C332.137 228.496 330.668 228.824 328.98 228.824H322.887L323.215 226.855H329.25C330.508 226.855 331.59 226.621 332.496 226.152C333.41 225.676 334.141 225.027 334.687 224.207C335.234 223.379 335.594 222.445 335.766 221.406C335.938 220.352 335.883 219.414 335.602 218.594C335.328 217.773 334.813 217.133 334.055 216.672C333.305 216.203 332.297 215.969 331.031 215.969H325.535L321.879 238H319.688ZM360.293 214H362.484L359.859 229.891C359.586 231.523 358.961 232.984 357.984 234.273C357.008 235.555 355.773 236.566 354.281 237.309C352.797 238.043 351.152 238.41 349.348 238.41C347.551 238.41 346.031 238.039 344.789 237.297C343.547 236.555 342.648 235.543 342.094 234.262C341.539 232.98 341.398 231.523 341.672 229.891L344.297 214H346.488L343.875 229.738C343.672 231.012 343.77 232.148 344.168 233.148C344.566 234.141 345.23 234.922 346.16 235.492C347.098 236.062 348.262 236.348 349.652 236.348C351.051 236.348 352.316 236.062 353.449 235.492C354.59 234.922 355.527 234.141 356.262 233.148C357.004 232.148 357.48 231.012 357.691 229.738L360.293 214ZM364.869 238L368.854 214H382.74L382.412 215.969H370.717L369.217 225.004H379.822L379.494 226.973H368.889L367.061 238H364.869ZM390.381 214L386.396 238H384.205L388.189 214H390.381Z" fill="black"/>
</svg>
